<svg xmlns="http://www.w3.org/2000/svg" version="1.1" xmlns:xlink="http://www.w3.org/1999/xlink" xmlns:svgjs="http://svgjs.dev/svgjs" viewBox="0 0 1422 800" opacity="0.31"><g stroke-width="1" stroke="hsl(30, 100%, 40%)" fill="none" stroke-linecap="round"><path d="M 0 2886 Q 355.5 -100 711 400 Q 1066.5 900 1422 2886" opacity="0.05"></path><path d="M 0 2860 Q 355.5 -100 711 400 Q 1066.5 900 1422 2860" opacity="0.06"></path><path d="M 0 2834 Q 355.5 -100 711 400 Q 1066.5 900 1422 2834" opacity="0.07"></path><path d="M 0 2808 Q 355.5 -100 711 400 Q 1066.5 900 1422 2808" opacity="0.08"></path><path d="M 0 2782 Q 355.5 -100 711 400 Q 1066.5 900 1422 2782" opacity="0.08"></path><path d="M 0 2756 Q 355.5 -100 711 400 Q 1066.5 900 1422 2756" opacity="0.09"></path><path d="M 0 2730 Q 355.5 -100 711 400 Q 1066.5 900 1422 2730" opacity="0.10"></path><path d="M 0 2704 Q 355.5 -100 711 400 Q 1066.5 900 1422 2704" opacity="0.11"></path><path d="M 0 2678 Q 355.5 -100 711 400 Q 1066.5 900 1422 2678" opacity="0.12"></path><path d="M 0 2652 Q 355.5 -100 711 400 Q 1066.5 900 1422 2652" opacity="0.13"></path><path d="M 0 2626 Q 355.5 -100 711 400 Q 1066.5 900 1422 2626" opacity="0.14"></path><path d="M 0 2600 Q 355.5 -100 711 400 Q 1066.5 900 1422 2600" opacity="0.15"></path><path d="M 0 2574 Q 355.5 -100 711 400 Q 1066.5 900 1422 2574" opacity="0.15"></path><path d="M 0 2548 Q 355.5 -100 711 400 Q 1066.5 900 1422 2548" opacity="0.16"></path><path d="M 0 2522 Q 355.5 -100 711 400 Q 1066.5 900 1422 2522" opacity="0.17"></path><path d="M 0 2496 Q 355.5 -100 711 400 Q 1066.5 900 1422 2496" opacity="0.18"></path><path d="M 0 2470 Q 355.5 -100 711 400 Q 1066.5 900 1422 2470" opacity="0.19"></path><path d="M 0 2444 Q 355.5 -100 711 400 Q 1066.5 900 1422 2444" opacity="0.20"></path><path d="M 0 2418 Q 355.5 -100 711 400 Q 1066.5 900 1422 2418" opacity="0.21"></path><path d="M 0 2392 Q 355.5 -100 711 400 Q 1066.5 900 1422 2392" opacity="0.21"></path><path d="M 0 2366 Q 355.5 -100 711 400 Q 1066.5 900 1422 2366" opacity="0.22"></path><path d="M 0 2340 Q 355.5 -100 711 400 Q 1066.5 900 1422 2340" opacity="0.23"></path><path d="M 0 2314 Q 355.5 -100 711 400 Q 1066.5 900 1422 2314" opacity="0.24"></path><path d="M 0 2288 Q 355.5 -100 711 400 Q 1066.5 900 1422 2288" opacity="0.25"></path><path d="M 0 2262 Q 355.5 -100 711 400 Q 1066.5 900 1422 2262" opacity="0.26"></path><path d="M 0 2236 Q 355.5 -100 711 400 Q 1066.5 900 1422 2236" opacity="0.27"></path><path d="M 0 2210 Q 355.5 -100 711 400 Q 1066.5 900 1422 2210" opacity="0.27"></path><path d="M 0 2184 Q 355.5 -100 711 400 Q 1066.5 900 1422 2184" opacity="0.28"></path><path d="M 0 2158 Q 355.5 -100 711 400 Q 1066.5 900 1422 2158" opacity="0.29"></path><path d="M 0 2132 Q 355.5 -100 711 400 Q 1066.5 900 1422 2132" opacity="0.30"></path><path d="M 0 2106 Q 355.5 -100 711 400 Q 1066.5 900 1422 2106" opacity="0.31"></path><path d="M 0 2080 Q 355.5 -100 711 400 Q 1066.5 900 1422 2080" opacity="0.32"></path><path d="M 0 2054 Q 355.5 -100 711 400 Q 1066.5 900 1422 2054" opacity="0.33"></path><path d="M 0 2028 Q 355.5 -100 711 400 Q 1066.5 900 1422 2028" opacity="0.33"></path><path d="M 0 2002 Q 355.5 -100 711 400 Q 1066.5 900 1422 2002" opacity="0.34"></path><path d="M 0 1976 Q 355.5 -100 711 400 Q 1066.5 900 1422 1976" opacity="0.35"></path><path d="M 0 1950 Q 355.5 -100 711 400 Q 1066.5 900 1422 1950" opacity="0.36"></path><path d="M 0 1924 Q 355.5 -100 711 400 Q 1066.5 900 1422 1924" opacity="0.37"></path><path d="M 0 1898 Q 355.5 -100 711 400 Q 1066.5 900 1422 1898" opacity="0.38"></path><path d="M 0 1872 Q 355.5 -100 711 400 Q 1066.5 900 1422 1872" opacity="0.39"></path><path d="M 0 1846 Q 355.5 -100 711 400 Q 1066.5 900 1422 1846" opacity="0.40"></path><path d="M 0 1820 Q 355.5 -100 711 400 Q 1066.5 900 1422 1820" opacity="0.40"></path><path d="M 0 1794 Q 355.5 -100 711 400 Q 1066.5 900 1422 1794" opacity="0.41"></path><path d="M 0 1768 Q 355.5 -100 711 400 Q 1066.5 900 1422 1768" opacity="0.42"></path><path d="M 0 1742 Q 355.5 -100 711 400 Q 1066.5 900 1422 1742" opacity="0.43"></path><path d="M 0 1716 Q 355.5 -100 711 400 Q 1066.5 900 1422 1716" opacity="0.44"></path><path d="M 0 1690 Q 355.5 -100 711 400 Q 1066.5 900 1422 1690" opacity="0.45"></path><path d="M 0 1664 Q 355.5 -100 711 400 Q 1066.5 900 1422 1664" opacity="0.46"></path><path d="M 0 1638 Q 355.5 -100 711 400 Q 1066.5 900 1422 1638" opacity="0.46"></path><path d="M 0 1612 Q 355.5 -100 711 400 Q 1066.5 900 1422 1612" opacity="0.47"></path><path d="M 0 1586 Q 355.5 -100 711 400 Q 1066.5 900 1422 1586" opacity="0.48"></path><path d="M 0 1560 Q 355.5 -100 711 400 Q 1066.5 900 1422 1560" opacity="0.49"></path><path d="M 0 1534 Q 355.5 -100 711 400 Q 1066.5 900 1422 1534" opacity="0.50"></path><path d="M 0 1508 Q 355.5 -100 711 400 Q 1066.5 900 1422 1508" opacity="0.51"></path><path d="M 0 1482 Q 355.5 -100 711 400 Q 1066.5 900 1422 1482" opacity="0.52"></path><path d="M 0 1456 Q 355.5 -100 711 400 Q 1066.5 900 1422 1456" opacity="0.53"></path><path d="M 0 1430 Q 355.5 -100 711 400 Q 1066.5 900 1422 1430" opacity="0.53"></path><path d="M 0 1404 Q 355.5 -100 711 400 Q 1066.5 900 1422 1404" opacity="0.54"></path><path d="M 0 1378 Q 355.5 -100 711 400 Q 1066.5 900 1422 1378" opacity="0.55"></path><path d="M 0 1352 Q 355.5 -100 711 400 Q 1066.5 900 1422 1352" opacity="0.56"></path><path d="M 0 1326 Q 355.5 -100 711 400 Q 1066.5 900 1422 1326" opacity="0.57"></path><path d="M 0 1300 Q 355.5 -100 711 400 Q 1066.5 900 1422 1300" opacity="0.58"></path><path d="M 0 1274 Q 355.5 -100 711 400 Q 1066.5 900 1422 1274" opacity="0.59"></path><path d="M 0 1248 Q 355.5 -100 711 400 Q 1066.5 900 1422 1248" opacity="0.59"></path><path d="M 0 1222 Q 355.5 -100 711 400 Q 1066.5 900 1422 1222" opacity="0.60"></path><path d="M 0 1196 Q 355.5 -100 711 400 Q 1066.5 900 1422 1196" opacity="0.61"></path><path d="M 0 1170 Q 355.5 -100 711 400 Q 1066.5 900 1422 1170" opacity="0.62"></path><path d="M 0 1144 Q 355.5 -100 711 400 Q 1066.5 900 1422 1144" opacity="0.63"></path><path d="M 0 1118 Q 355.5 -100 711 400 Q 1066.5 900 1422 1118" opacity="0.64"></path><path d="M 0 1092 Q 355.5 -100 711 400 Q 1066.5 900 1422 1092" opacity="0.65"></path><path d="M 0 1066 Q 355.5 -100 711 400 Q 1066.5 900 1422 1066" opacity="0.65"></path><path d="M 0 1040 Q 355.5 -100 711 400 Q 1066.5 900 1422 1040" opacity="0.66"></path><path d="M 0 1014 Q 355.5 -100 711 400 Q 1066.5 900 1422 1014" opacity="0.67"></path><path d="M 0 988 Q 355.5 -100 711 400 Q 1066.5 900 1422 988" opacity="0.68"></path><path d="M 0 962 Q 355.5 -100 711 400 Q 1066.5 900 1422 962" opacity="0.69"></path><path d="M 0 936 Q 355.5 -100 711 400 Q 1066.5 900 1422 936" opacity="0.70"></path><path d="M 0 910 Q 355.5 -100 711 400 Q 1066.5 900 1422 910" opacity="0.71"></path><path d="M 0 884 Q 355.5 -100 711 400 Q 1066.5 900 1422 884" opacity="0.71"></path><path d="M 0 858 Q 355.5 -100 711 400 Q 1066.5 900 1422 858" opacity="0.72"></path><path d="M 0 832 Q 355.5 -100 711 400 Q 1066.5 900 1422 832" opacity="0.73"></path><path d="M 0 806 Q 355.5 -100 711 400 Q 1066.5 900 1422 806" opacity="0.74"></path><path d="M 0 780 Q 355.5 -100 711 400 Q 1066.5 900 1422 780" opacity="0.75"></path><path d="M 0 754 Q 355.5 -100 711 400 Q 1066.5 900 1422 754" opacity="0.76"></path><path d="M 0 728 Q 355.5 -100 711 400 Q 1066.5 900 1422 728" opacity="0.77"></path><path d="M 0 702 Q 355.5 -100 711 400 Q 1066.5 900 1422 702" opacity="0.78"></path><path d="M 0 676 Q 355.5 -100 711 400 Q 1066.5 900 1422 676" opacity="0.78"></path><path d="M 0 650 Q 355.5 -100 711 400 Q 1066.5 900 1422 650" opacity="0.79"></path><path d="M 0 624 Q 355.5 -100 711 400 Q 1066.5 900 1422 624" opacity="0.80"></path><path d="M 0 598 Q 355.5 -100 711 400 Q 1066.5 900 1422 598" opacity="0.81"></path><path d="M 0 572 Q 355.5 -100 711 400 Q 1066.5 900 1422 572" opacity="0.82"></path><path d="M 0 546 Q 355.5 -100 711 400 Q 1066.5 900 1422 546" opacity="0.83"></path><path d="M 0 520 Q 355.5 -100 711 400 Q 1066.5 900 1422 520" opacity="0.84"></path><path d="M 0 494 Q 355.5 -100 711 400 Q 1066.5 900 1422 494" opacity="0.84"></path><path d="M 0 468 Q 355.5 -100 711 400 Q 1066.5 900 1422 468" opacity="0.85"></path><path d="M 0 442 Q 355.5 -100 711 400 Q 1066.5 900 1422 442" opacity="0.86"></path><path d="M 0 416 Q 355.5 -100 711 400 Q 1066.5 900 1422 416" opacity="0.87"></path><path d="M 0 390 Q 355.5 -100 711 400 Q 1066.5 900 1422 390" opacity="0.88"></path><path d="M 0 364 Q 355.5 -100 711 400 Q 1066.5 900 1422 364" opacity="0.89"></path><path d="M 0 338 Q 355.5 -100 711 400 Q 1066.5 900 1422 338" opacity="0.90"></path><path d="M 0 312 Q 355.5 -100 711 400 Q 1066.5 900 1422 312" opacity="0.91"></path><path d="M 0 286 Q 355.5 -100 711 400 Q 1066.5 900 1422 286" opacity="0.91"></path><path d="M 0 260 Q 355.5 -100 711 400 Q 1066.5 900 1422 260" opacity="0.92"></path><path d="M 0 234 Q 355.5 -100 711 400 Q 1066.5 900 1422 234" opacity="0.93"></path><path d="M 0 208 Q 355.5 -100 711 400 Q 1066.5 900 1422 208" opacity="0.94"></path><path d="M 0 182 Q 355.5 -100 711 400 Q 1066.5 900 1422 182" opacity="0.95"></path><path d="M 0 156 Q 355.5 -100 711 400 Q 1066.5 900 1422 156" opacity="0.96"></path><path d="M 0 130 Q 355.5 -100 711 400 Q 1066.5 900 1422 130" opacity="0.97"></path><path d="M 0 104 Q 355.5 -100 711 400 Q 1066.5 900 1422 104" opacity="0.97"></path><path d="M 0 78 Q 355.5 -100 711 400 Q 1066.5 900 1422 78" opacity="0.98"></path><path d="M 0 52 Q 355.5 -100 711 400 Q 1066.5 900 1422 52" opacity="0.99"></path></g></svg>