<svg xmlns="http://www.w3.org/2000/svg" version="1.1" xmlns:xlink="http://www.w3.org/1999/xlink" xmlns:svgjs="http://svgjs.dev/svgjs" viewBox="0 0 1422 800" opacity="0.31"><g stroke-width="1.5" stroke="hsl(180, 69%, 30%)" fill="none" stroke-linecap="round"><path d="M 0 -3552 Q 355.5 -100 711 400 Q 1066.5 900 1422 -3552" opacity="0.05"></path><path d="M 0 -3520 Q 355.5 -100 711 400 Q 1066.5 900 1422 -3520" opacity="0.06"></path><path d="M 0 -3488 Q 355.5 -100 711 400 Q 1066.5 900 1422 -3488" opacity="0.07"></path><path d="M 0 -3456 Q 355.5 -100 711 400 Q 1066.5 900 1422 -3456" opacity="0.08"></path><path d="M 0 -3424 Q 355.5 -100 711 400 Q 1066.5 900 1422 -3424" opacity="0.08"></path><path d="M 0 -3392 Q 355.5 -100 711 400 Q 1066.5 900 1422 -3392" opacity="0.09"></path><path d="M 0 -3360 Q 355.5 -100 711 400 Q 1066.5 900 1422 -3360" opacity="0.10"></path><path d="M 0 -3328 Q 355.5 -100 711 400 Q 1066.5 900 1422 -3328" opacity="0.11"></path><path d="M 0 -3296 Q 355.5 -100 711 400 Q 1066.5 900 1422 -3296" opacity="0.12"></path><path d="M 0 -3264 Q 355.5 -100 711 400 Q 1066.5 900 1422 -3264" opacity="0.13"></path><path d="M 0 -3232 Q 355.5 -100 711 400 Q 1066.5 900 1422 -3232" opacity="0.14"></path><path d="M 0 -3200 Q 355.5 -100 711 400 Q 1066.5 900 1422 -3200" opacity="0.15"></path><path d="M 0 -3168 Q 355.5 -100 711 400 Q 1066.5 900 1422 -3168" opacity="0.15"></path><path d="M 0 -3136 Q 355.5 -100 711 400 Q 1066.5 900 1422 -3136" opacity="0.16"></path><path d="M 0 -3104 Q 355.5 -100 711 400 Q 1066.5 900 1422 -3104" opacity="0.17"></path><path d="M 0 -3072 Q 355.5 -100 711 400 Q 1066.5 900 1422 -3072" opacity="0.18"></path><path d="M 0 -3040 Q 355.5 -100 711 400 Q 1066.5 900 1422 -3040" opacity="0.19"></path><path d="M 0 -3008 Q 355.5 -100 711 400 Q 1066.5 900 1422 -3008" opacity="0.20"></path><path d="M 0 -2976 Q 355.5 -100 711 400 Q 1066.5 900 1422 -2976" opacity="0.21"></path><path d="M 0 -2944 Q 355.5 -100 711 400 Q 1066.5 900 1422 -2944" opacity="0.21"></path><path d="M 0 -2912 Q 355.5 -100 711 400 Q 1066.5 900 1422 -2912" opacity="0.22"></path><path d="M 0 -2880 Q 355.5 -100 711 400 Q 1066.5 900 1422 -2880" opacity="0.23"></path><path d="M 0 -2848 Q 355.5 -100 711 400 Q 1066.5 900 1422 -2848" opacity="0.24"></path><path d="M 0 -2816 Q 355.5 -100 711 400 Q 1066.5 900 1422 -2816" opacity="0.25"></path><path d="M 0 -2784 Q 355.5 -100 711 400 Q 1066.5 900 1422 -2784" opacity="0.26"></path><path d="M 0 -2752 Q 355.5 -100 711 400 Q 1066.5 900 1422 -2752" opacity="0.27"></path><path d="M 0 -2720 Q 355.5 -100 711 400 Q 1066.5 900 1422 -2720" opacity="0.27"></path><path d="M 0 -2688 Q 355.5 -100 711 400 Q 1066.5 900 1422 -2688" opacity="0.28"></path><path d="M 0 -2656 Q 355.5 -100 711 400 Q 1066.5 900 1422 -2656" opacity="0.29"></path><path d="M 0 -2624 Q 355.5 -100 711 400 Q 1066.5 900 1422 -2624" opacity="0.30"></path><path d="M 0 -2592 Q 355.5 -100 711 400 Q 1066.5 900 1422 -2592" opacity="0.31"></path><path d="M 0 -2560 Q 355.5 -100 711 400 Q 1066.5 900 1422 -2560" opacity="0.32"></path><path d="M 0 -2528 Q 355.5 -100 711 400 Q 1066.5 900 1422 -2528" opacity="0.33"></path><path d="M 0 -2496 Q 355.5 -100 711 400 Q 1066.5 900 1422 -2496" opacity="0.33"></path><path d="M 0 -2464 Q 355.5 -100 711 400 Q 1066.5 900 1422 -2464" opacity="0.34"></path><path d="M 0 -2432 Q 355.5 -100 711 400 Q 1066.5 900 1422 -2432" opacity="0.35"></path><path d="M 0 -2400 Q 355.5 -100 711 400 Q 1066.5 900 1422 -2400" opacity="0.36"></path><path d="M 0 -2368 Q 355.5 -100 711 400 Q 1066.5 900 1422 -2368" opacity="0.37"></path><path d="M 0 -2336 Q 355.5 -100 711 400 Q 1066.5 900 1422 -2336" opacity="0.38"></path><path d="M 0 -2304 Q 355.5 -100 711 400 Q 1066.5 900 1422 -2304" opacity="0.39"></path><path d="M 0 -2272 Q 355.5 -100 711 400 Q 1066.5 900 1422 -2272" opacity="0.40"></path><path d="M 0 -2240 Q 355.5 -100 711 400 Q 1066.5 900 1422 -2240" opacity="0.40"></path><path d="M 0 -2208 Q 355.5 -100 711 400 Q 1066.5 900 1422 -2208" opacity="0.41"></path><path d="M 0 -2176 Q 355.5 -100 711 400 Q 1066.5 900 1422 -2176" opacity="0.42"></path><path d="M 0 -2144 Q 355.5 -100 711 400 Q 1066.5 900 1422 -2144" opacity="0.43"></path><path d="M 0 -2112 Q 355.5 -100 711 400 Q 1066.5 900 1422 -2112" opacity="0.44"></path><path d="M 0 -2080 Q 355.5 -100 711 400 Q 1066.5 900 1422 -2080" opacity="0.45"></path><path d="M 0 -2048 Q 355.5 -100 711 400 Q 1066.5 900 1422 -2048" opacity="0.46"></path><path d="M 0 -2016 Q 355.5 -100 711 400 Q 1066.5 900 1422 -2016" opacity="0.46"></path><path d="M 0 -1984 Q 355.5 -100 711 400 Q 1066.5 900 1422 -1984" opacity="0.47"></path><path d="M 0 -1952 Q 355.5 -100 711 400 Q 1066.5 900 1422 -1952" opacity="0.48"></path><path d="M 0 -1920 Q 355.5 -100 711 400 Q 1066.5 900 1422 -1920" opacity="0.49"></path><path d="M 0 -1888 Q 355.5 -100 711 400 Q 1066.5 900 1422 -1888" opacity="0.50"></path><path d="M 0 -1856 Q 355.5 -100 711 400 Q 1066.5 900 1422 -1856" opacity="0.51"></path><path d="M 0 -1824 Q 355.5 -100 711 400 Q 1066.5 900 1422 -1824" opacity="0.52"></path><path d="M 0 -1792 Q 355.5 -100 711 400 Q 1066.5 900 1422 -1792" opacity="0.53"></path><path d="M 0 -1760 Q 355.5 -100 711 400 Q 1066.5 900 1422 -1760" opacity="0.53"></path><path d="M 0 -1728 Q 355.5 -100 711 400 Q 1066.5 900 1422 -1728" opacity="0.54"></path><path d="M 0 -1696 Q 355.5 -100 711 400 Q 1066.5 900 1422 -1696" opacity="0.55"></path><path d="M 0 -1664 Q 355.5 -100 711 400 Q 1066.5 900 1422 -1664" opacity="0.56"></path><path d="M 0 -1632 Q 355.5 -100 711 400 Q 1066.5 900 1422 -1632" opacity="0.57"></path><path d="M 0 -1600 Q 355.5 -100 711 400 Q 1066.5 900 1422 -1600" opacity="0.58"></path><path d="M 0 -1568 Q 355.5 -100 711 400 Q 1066.5 900 1422 -1568" opacity="0.59"></path><path d="M 0 -1536 Q 355.5 -100 711 400 Q 1066.5 900 1422 -1536" opacity="0.59"></path><path d="M 0 -1504 Q 355.5 -100 711 400 Q 1066.5 900 1422 -1504" opacity="0.60"></path><path d="M 0 -1472 Q 355.5 -100 711 400 Q 1066.5 900 1422 -1472" opacity="0.61"></path><path d="M 0 -1440 Q 355.5 -100 711 400 Q 1066.5 900 1422 -1440" opacity="0.62"></path><path d="M 0 -1408 Q 355.5 -100 711 400 Q 1066.5 900 1422 -1408" opacity="0.63"></path><path d="M 0 -1376 Q 355.5 -100 711 400 Q 1066.5 900 1422 -1376" opacity="0.64"></path><path d="M 0 -1344 Q 355.5 -100 711 400 Q 1066.5 900 1422 -1344" opacity="0.65"></path><path d="M 0 -1312 Q 355.5 -100 711 400 Q 1066.5 900 1422 -1312" opacity="0.65"></path><path d="M 0 -1280 Q 355.5 -100 711 400 Q 1066.5 900 1422 -1280" opacity="0.66"></path><path d="M 0 -1248 Q 355.5 -100 711 400 Q 1066.5 900 1422 -1248" opacity="0.67"></path><path d="M 0 -1216 Q 355.5 -100 711 400 Q 1066.5 900 1422 -1216" opacity="0.68"></path><path d="M 0 -1184 Q 355.5 -100 711 400 Q 1066.5 900 1422 -1184" opacity="0.69"></path><path d="M 0 -1152 Q 355.5 -100 711 400 Q 1066.5 900 1422 -1152" opacity="0.70"></path><path d="M 0 -1120 Q 355.5 -100 711 400 Q 1066.5 900 1422 -1120" opacity="0.71"></path><path d="M 0 -1088 Q 355.5 -100 711 400 Q 1066.5 900 1422 -1088" opacity="0.71"></path><path d="M 0 -1056 Q 355.5 -100 711 400 Q 1066.5 900 1422 -1056" opacity="0.72"></path><path d="M 0 -1024 Q 355.5 -100 711 400 Q 1066.5 900 1422 -1024" opacity="0.73"></path><path d="M 0 -992 Q 355.5 -100 711 400 Q 1066.5 900 1422 -992" opacity="0.74"></path><path d="M 0 -960 Q 355.5 -100 711 400 Q 1066.5 900 1422 -960" opacity="0.75"></path><path d="M 0 -928 Q 355.5 -100 711 400 Q 1066.5 900 1422 -928" opacity="0.76"></path><path d="M 0 -896 Q 355.5 -100 711 400 Q 1066.5 900 1422 -896" opacity="0.77"></path><path d="M 0 -864 Q 355.5 -100 711 400 Q 1066.5 900 1422 -864" opacity="0.78"></path><path d="M 0 -832 Q 355.5 -100 711 400 Q 1066.5 900 1422 -832" opacity="0.78"></path><path d="M 0 -800 Q 355.5 -100 711 400 Q 1066.5 900 1422 -800" opacity="0.79"></path><path d="M 0 -768 Q 355.5 -100 711 400 Q 1066.5 900 1422 -768" opacity="0.80"></path><path d="M 0 -736 Q 355.5 -100 711 400 Q 1066.5 900 1422 -736" opacity="0.81"></path><path d="M 0 -704 Q 355.5 -100 711 400 Q 1066.5 900 1422 -704" opacity="0.82"></path><path d="M 0 -672 Q 355.5 -100 711 400 Q 1066.5 900 1422 -672" opacity="0.83"></path><path d="M 0 -640 Q 355.5 -100 711 400 Q 1066.5 900 1422 -640" opacity="0.84"></path><path d="M 0 -608 Q 355.5 -100 711 400 Q 1066.5 900 1422 -608" opacity="0.84"></path><path d="M 0 -576 Q 355.5 -100 711 400 Q 1066.5 900 1422 -576" opacity="0.85"></path><path d="M 0 -544 Q 355.5 -100 711 400 Q 1066.5 900 1422 -544" opacity="0.86"></path><path d="M 0 -512 Q 355.5 -100 711 400 Q 1066.5 900 1422 -512" opacity="0.87"></path><path d="M 0 -480 Q 355.5 -100 711 400 Q 1066.5 900 1422 -480" opacity="0.88"></path><path d="M 0 -448 Q 355.5 -100 711 400 Q 1066.5 900 1422 -448" opacity="0.89"></path><path d="M 0 -416 Q 355.5 -100 711 400 Q 1066.5 900 1422 -416" opacity="0.90"></path><path d="M 0 -384 Q 355.5 -100 711 400 Q 1066.5 900 1422 -384" opacity="0.91"></path><path d="M 0 -352 Q 355.5 -100 711 400 Q 1066.5 900 1422 -352" opacity="0.91"></path><path d="M 0 -320 Q 355.5 -100 711 400 Q 1066.5 900 1422 -320" opacity="0.92"></path><path d="M 0 -288 Q 355.5 -100 711 400 Q 1066.5 900 1422 -288" opacity="0.93"></path><path d="M 0 -256 Q 355.5 -100 711 400 Q 1066.5 900 1422 -256" opacity="0.94"></path><path d="M 0 -224 Q 355.5 -100 711 400 Q 1066.5 900 1422 -224" opacity="0.95"></path><path d="M 0 -192 Q 355.5 -100 711 400 Q 1066.5 900 1422 -192" opacity="0.96"></path><path d="M 0 -160 Q 355.5 -100 711 400 Q 1066.5 900 1422 -160" opacity="0.97"></path><path d="M 0 -128 Q 355.5 -100 711 400 Q 1066.5 900 1422 -128" opacity="0.97"></path><path d="M 0 -96 Q 355.5 -100 711 400 Q 1066.5 900 1422 -96" opacity="0.98"></path><path d="M 0 -64 Q 355.5 -100 711 400 Q 1066.5 900 1422 -64" opacity="0.99"></path></g></svg>